# xmcd
#
# Track frame offsets: 
#        150
#        38695
#        61989
#        80935
#        114302
#        143478
#        179285
#        202168
#        261027
#        271572
#
# Disc length: 4042 seconds
#
# Revision: 2
# Processed by: cddbd v1.5.2PL0 Copyright (c) Steve Scherf et al.
# Submitted via: ExactAudioCopy v1.0b6
#
DISCID=860fc80a
DTITLE=Wynton Marsalis and Lincoln Center Jazz Orchestra - Abyssinian Ma
DTITLE=ss (2016)
DYEAR=2016
DGENRE=Jazz
TTITLE0=Devotional
TTITLE1=Call To Worship
TTITLE2=The Lord's Prayer
TTITLE3=Processional: "We Are On Our Way"
TTITLE4=Invocation and Chant
TTITLE5=Responsive Reading, Matthew 5:3-12 "The Beautitudes"
TTITLE6=Gloria Patri
TTITLE7=Prayer: "Pastoral Prayer"
TTITLE8=Choral Response: "Through Him I've Come To See"
TTITLE9=Anthem: "Glory To God In The Highest"
EXTD=
EXTT0=
EXTT1=
EXTT2=
EXTT3=
EXTT4=
EXTT5=
EXTT6=
EXTT7=
EXTT8=
EXTT9=
PLAYORDER=
